<?xml version="1.0" encoding="UTF-8"?>
<!DOCTYPE svg PUBLIC "-//W3C//DTD SVG 1.1//EN" "http://www.w3.org/Graphics/SVG/1.1/DTD/svg11.dtd">
<!-- Creator: CorelDRAW X6 -->
<svg xmlns="http://www.w3.org/2000/svg" xml:space="preserve" width="3.125in" height="2.15278in" version="1.1" style="shape-rendering:geometricPrecision; text-rendering:geometricPrecision; image-rendering:optimizeQuality; fill-rule:evenodd; clip-rule:evenodd"
viewBox="0 0 3125 2153"
 xmlns:xlink="http://www.w3.org/1999/xlink">
 <defs>
  <style type="text/css">
   <![CDATA[
    .fil0 {fill:#424B53;fill-rule:nonzero}
    .fil2 {fill:#969C98;fill-rule:nonzero}
    .fil1 {fill:#BFD43F;fill-rule:nonzero}
   ]]>
  </style>
 </defs>
 <g id="Layer_x0020_1">
  <metadata id="CorelCorpID_0Corel-Layer"/>
  <polygon class="fil0" points="1524,-5 815,404 1073,553 1073,553 1524,293 "/>
  <polygon class="fil0" points="1726,697 1524,581 1323,697 1323,697 1524,814 "/>
  <polygon class="fil1" points="1524,1047 1524,1047 1726,930 1726,697 1524,814 "/>
  <polygon class="fil1" points="1976,553 1976,1074 1524,1335 1524,1335 1524,1632 2234,1223 2234,404 "/>
  <polygon class="fil2" points="1524,1047 1524,814 1323,697 1323,930 "/>
  <polygon class="fil2" points="1073,1074 1073,553 815,404 815,1223 1524,1632 1524,1335 "/>
  <path class="fil0" d="M246 2101l-179 0 0 -170 179 0 0 40 67 0 0 -26c0,-52 -17,-65 -72,-65l-170 0c-54,0 -71,14 -71,65l0 144c0,50 16,65 71,65l170 0c54,0 72,-14 72,-65l0 -32 -67 0 0 44z"/>
  <polygon class="fil0" points="474,1880 406,1880 406,2153 688,2153 688,2102 474,2102 "/>
  <path class="fil0" d="M1049 2101l-220 0 0 -170 220 0 0 170zm-5 -221l-211 0c-54,0 -71,12 -71,65l0 144c0,52 17,65 71,65l211 0c54,0 71,-13 71,-65l0 -144c0,-52 -17,-65 -71,-65z"/>
  <path class="fil0" d="M1468 2102l-190 0 0 -222 -66 0 0 208c0,51 17,65 71,65l181 0c54,0 72,-14 72,-65l0 -208 -67 0 0 222z"/>
  <path class="fil0" d="M1788 2102l-86 0 0 -173 117 0c63,0 95,26 95,83 0,71 -42,90 -127,90zm31 -222l-184 0 0 273 167 0c120,0 181,-45 181,-137 0,-85 -56,-136 -164,-136z"/>
  <polygon class="fil0" points="2072,2153 2139,2153 2139,1880 2072,1880 "/>
  <path class="fil0" d="M2347 2043l61 -114 64 114 -125 0zm33 -163l-162 273 66 0 34 -60 181 0 34 60 75 0 -165 -273 -64 0z"/>
  <polygon class="fil0" points="2961,1880 2961,2061 2729,1880 2684,1880 2684,2153 2744,2153 2744,1969 2975,2153 3021,2153 3021,1880 "/>
  <path class="fil0" d="M3096 1900l0 13 6 0c4,0 6,0 8,-1 2,-1 3,-3 3,-5 0,-3 -1,-4 -3,-5 -2,-1 -4,-2 -8,-2l-6 0zm43 18l0 -4c0,-4 -1,-8 -3,-12 -2,-4 -4,-8 -8,-12 -3,-4 -7,-6 -12,-8 -4,-2 -9,-3 -14,-3 -5,0 -9,1 -14,3 -4,2 -8,4 -11,8 -4,4 -6,8 -8,12 -2,4 -3,9 -3,14 0,5 1,9 3,14 2,4 4,8 8,12 3,4 7,6 12,8 4,2 9,3 14,3 5,0 9,-1 14,-3 4,-2 8,-4 12,-8 3,-3 6,-7 8,-11 2,-4 2,-8 3,-12zm-18 -12c0,3 -1,5 -2,7 -2,2 -4,3 -7,4l9 19 -9 0 -8 -17 -8 0 0 17 -8 0 0 -41 15 0c11,0 17,4 17,11zm11 -2c-1,-4 -4,-7 -7,-10 -3,-3 -6,-5 -10,-7 -4,-2 -8,-2 -12,-2 -4,0 -8,1 -12,2 -4,2 -7,4 -10,7 -3,3 -5,7 -7,10 -2,4 -2,8 -2,12 0,4 1,8 2,12 2,4 4,7 7,10 3,3 6,5 10,7 4,2 8,2 12,2 4,0 8,-1 12,-2 4,-2 7,-4 10,-7 3,-3 5,-6 7,-10 2,-4 2,-8 2,-12 0,-4 -1,-8 -2,-12z"/>
 </g>
</svg>
